<?xml version="1.0" standalone="no"?>
<!DOCTYPE svg PUBLIC "-//W3C//DTD SVG 1.1//EN" "http://www.w3.org/Graphics/SVG/1.1/DTD/svg11.dtd" >
<svg xmlns="http://www.w3.org/2000/svg" xmlns:xlink="http://www.w3.org/1999/xlink" version="1.1">
<metadata></metadata>
<defs>
<font id="proxy_9regular" horiz-adv-x="1474" >
<font-face units-per-em="2048" ascent="1638" descent="-410" />
<missing-glyph horiz-adv-x="1024" />
<glyph horiz-adv-x="0" />
<glyph unicode="&#xd;" horiz-adv-x="1024" />
<glyph unicode=" "  horiz-adv-x="1024" />
<glyph unicode="&#x09;" horiz-adv-x="1024" />
<glyph unicode="&#xa0;" horiz-adv-x="1024" />
<glyph unicode="!" horiz-adv-x="491" d="M229 0v246h33v-246h-33zM229 492v983h33v-983h-33z" />
<glyph unicode="&#x22;" horiz-adv-x="983" d="M231 991l246 492l29 -17l-246 -491zM477 991l246 492l29 -17l-246 -491z" />
<glyph unicode="#" d="M246 475v33h229v459h-229v32h229v476h33v-476h459v476h32v-476h230v-32h-230v-459h230v-33h-230v-475h-32v475h-459v-475h-33v475h-229zM508 508h459v459h-459v-459z" />
<glyph unicode="$" d="M223 983l262 262h236v230h33v-230h475v-33h-475v-458h235l262 -262l-262 -263h-235v-229h-33v229h-475v33h475v459h-236zM268 983l230 -229h223v458h-223zM754 262h223l229 230l-229 229h-223v-459z" />
<glyph unicode="%" d="M229 1212v279h279v-279h-279zM231 8l983 1475l29 -17l-983 -1474zM262 1245h213v213h-213v-213zM967 -16v278h278v-278h-278zM999 16h213v213h-213v-213z" />
<glyph unicode="&#x26;" d="M229 240v258l240 239l-240 240v258l263 262l262 -262v-258l-240 -240l469 -469l234 236l24 -25l-235 -233l235 -234l-24 -24l-234 235l-240 -239h-258zM262 252l236 -236h233l230 230l-469 469l-230 -230v-233zM262 989l230 -229l229 229v234l-229 229l-230 -229v-234z " />
<glyph unicode="'" horiz-adv-x="737" d="M231 991l246 492l29 -17l-246 -491z" />
<glyph unicode="(" horiz-adv-x="983" d="M229 485v504l496 498l25 -25l-488 -485v-479l488 -486l-25 -24z" />
<glyph unicode=")" horiz-adv-x="983" d="M233 12l488 486v479l-488 485l25 25l496 -498v-504l-496 -497z" />
<glyph unicode="*" d="M233 258l465 463h-452v33h452l-465 463l25 24l479 -481l480 481l24 -24l-465 -463h453v-33h-453l465 -463l-24 -25l-480 482l-479 -482z" />
<glyph unicode="+" d="M246 721v33h475v475h33v-475h475v-33h-475v-475h-33v475h-475z" />
<glyph unicode="," horiz-adv-x="737" d="M233 -233l242 239v240h33v-252l-250 -252z" />
<glyph unicode="-" d="M246 721v33h983v-33h-983z" />
<glyph unicode="." horiz-adv-x="491" d="M229 0v246h33v-246h-33z" />
<glyph unicode="/" d="M231 8l983 1475l29 -17l-983 -1474z" />
<glyph unicode="0" horiz-adv-x="1228" d="M229 240v995l256 256h258l256 -256v-995l-256 -256h-258zM262 252l236 -236h233l236 236v971l-236 235h-233l-236 -235v-971z" />
<glyph unicode="1" horiz-adv-x="983" d="M233 1241l275 272v-1497h229v-32h-491v32h229v1420l-217 -219z" />
<glyph unicode="2" d="M229 -16v514l256 256h492l235 235v234l-235 235h-479l-240 -241l-25 24l252 250h504l256 -256v-258l-256 -256h-491l-236 -236v-469h967v-32h-1000z" />
<glyph unicode="3" d="M233 233l25 25l240 -242h479l235 236v233l-235 236h-240v33h240l235 235v234l-235 235h-479l-240 -241l-25 24l252 250h504l256 -256v-258l-239 -240l239 -239v-258l-256 -256h-504z" />
<glyph unicode="4" d="M213 475l786 1049v-1016h230v-33h-230v-475h-32v475h-754zM279 508h688v917z" />
<glyph unicode="5" d="M229 967v524h1000v-33h-967v-459h727l256 -256v-503l-256 -256h-504l-252 249l25 25l240 -242h479l235 236v479l-235 236h-748z" />
<glyph unicode="6" d="M229 240v749l502 502h252v-33h-240l-481 -481v-223h727l256 -256v-258l-256 -256h-504zM262 252l236 -236h479l235 236v233l-235 236h-715v-469z" />
<glyph unicode="7" d="M246 1458v33h1009l-749 -1499l-29 16l725 1450h-956z" />
<glyph unicode="8" d="M229 240v258l240 239l-240 240v258l256 256h504l256 -256v-258l-239 -240l239 -239v-258l-256 -256h-504zM262 252l236 -236h479l235 236v233l-235 236h-479l-236 -236v-233zM262 989l236 -235h479l235 235v234l-235 235h-479l-236 -235v-234z" />
<glyph unicode="9" d="M229 977v258l256 256h504l256 -256v-750l-502 -501h-251v32h239l481 482v223h-727zM262 989l236 -235h714v469l-235 235h-479l-236 -235v-234z" />
<glyph unicode=":" horiz-adv-x="491" d="M229 246v246h33v-246h-33zM229 737v246h33v-246h-33z" />
<glyph unicode=";" horiz-adv-x="737" d="M233 -236l242 259v469h33v-482l-250 -266zM475 737v246h33v-246h-33z" />
<glyph unicode="&#x3c;" horiz-adv-x="1228" d="M223 737l748 750l24 -25l-727 -725l727 -725l-24 -24z" />
<glyph unicode="=" d="M246 475v33h983v-33h-983zM246 967v32h983v-32h-983z" />
<glyph unicode="&#x3e;" horiz-adv-x="1228" d="M233 12l728 725l-728 725l25 25l748 -750l-748 -749z" />
<glyph unicode="?" horiz-adv-x="1228" d="M233 1241l252 250h258l256 -256v-258l-245 -246v-239h-33v251l246 246v234l-236 235h-233l-240 -241zM721 0v246h33v-246h-33z" />
<glyph unicode="@" d="M229 240v995l256 256h504l256 -256v-504l-278 -278v245l-224 -223h-268v268l256 256h268v-469l213 213v480l-235 235h-479l-236 -235v-971l236 -236h731v-32h-744zM508 508h223l236 235v224h-224l-235 -236v-223z" />
<glyph unicode="A" d="M229 0v496l508 1015l508 -1015v-496h-33v475h-950v-475h-33zM272 508h930l-465 930z" />
<glyph unicode="B" d="M246 -16v32h229v1442h-229v33h743l256 -256v-258l-239 -240l239 -239v-258l-256 -256h-743zM508 16h469l235 236v233l-235 236h-469v-705zM508 754h469l235 235v234l-235 235h-469v-704z" />
<glyph unicode="C" d="M229 240v995l256 256h504l252 -250l-24 -24l-240 241h-479l-236 -235v-971l236 -236h479l240 242l24 -25l-252 -249h-504z" />
<glyph unicode="D" d="M246 -16v32h229v1442h-229v33h743l256 -256v-995l-256 -256h-743zM508 16h469l235 236v971l-235 235h-469v-1442z" />
<glyph unicode="E" d="M229 -16v1507h1000v-33h-967v-704h475v-33h-475v-705h967v-32h-1000z" />
<glyph unicode="F" d="M229 0v1491h1000v-33h-967v-704h475v-33h-475v-721h-33z" />
<glyph unicode="G" d="M229 240v995l256 256h744v-33h-731l-236 -235v-971l236 -236h714v705h-229v33h262v-770h-760z" />
<glyph unicode="H" d="M229 0v1475h33v-721h950v721h33v-1475h-33v721h-950v-721h-33z" />
<glyph unicode="I" horiz-adv-x="983" d="M246 16h229v1442h-229v33h491v-33h-229v-1442h229v-32h-491v32z" />
<glyph unicode="J" d="M233 233l25 25l240 -242h479l235 236v1223h33v-1235l-256 -256h-504z" />
<glyph unicode="K" d="M229 0v1475h33v-721h223l732 733l24 -25l-727 -725l727 -725l-24 -24l-732 733h-223v-721h-33z" />
<glyph unicode="L" d="M229 -16v1491h33v-1459h967v-32h-1000z" />
<glyph unicode="M" d="M229 0v1544l508 -1016l508 1016v-1544h-33v1405l-475 -950l-475 950v-1405h-33z" />
<glyph unicode="N" d="M229 0v1528l983 -1475v1422h33v-1528l-983 1474v-1421h-33z" />
<glyph unicode="O" d="M229 -16v1507h1016v-1507h-1016zM262 16h950v1442h-950v-1442z" />
<glyph unicode="P" d="M229 0v1491h760l256 -256v-258l-256 -256h-727v-721h-33zM262 754h715l235 235v234l-235 235h-715v-704z" />
<glyph unicode="Q" d="M229 240v995l256 256h504l256 -256v-750l-239 -239l235 -234l-24 -24l-234 235l-240 -239h-258zM262 252l236 -236h233l230 230l-236 233l25 25l233 -236l229 230v725l-235 235h-479l-236 -235v-971z" />
<glyph unicode="R" d="M229 0v1491h760l256 -256v-258l-256 -256h-459l711 -709l-24 -24l-732 733h-223v-721h-33zM262 754h715l235 235v234l-235 235h-715v-704z" />
<glyph unicode="S" d="M223 1229l262 262h504l252 -250l-24 -24l-240 241h-479l-230 -229l983 -983l-262 -262h-504l-252 249l25 25l240 -242h479l229 230z" />
<glyph unicode="T" d="M246 1458v33h983v-33h-475v-1458h-33v1458h-475z" />
<glyph unicode="U" d="M229 240v1235h33v-1223l236 -236h479l235 236v1223h33v-1235l-256 -256h-504z" />
<glyph unicode="V" horiz-adv-x="1966" d="M231 1466l29 17l723 -1446l723 1446l29 -17l-752 -1503z" />
<glyph unicode="W" horiz-adv-x="1966" d="M229 1468l33 13l475 -1430l246 737l246 -737l475 1430l33 -13l-508 -1519l-246 737l-246 -737z" />
<glyph unicode="X" d="M231 8l486 729l-486 729l29 17l477 -717l477 717l29 -17l-485 -729l485 -729l-29 -16l-477 717l-477 -717z" />
<glyph unicode="Y" d="M231 1466l29 17l477 -717l477 717l29 -17l-489 -733v-733h-33v733z" />
<glyph unicode="Z" d="M215 -16l983 1474h-952v33h1014l-984 -1475h953v-32h-1014z" />
<glyph unicode="[" horiz-adv-x="983" d="M229 -16v1507h508v-33h-475v-1442h475v-32h-508z" />
<glyph unicode="\" d="M231 1466l29 17l983 -1475l-29 -16z" />
<glyph unicode="]" horiz-adv-x="983" d="M246 -16v32h475v1442h-475v33h508v-1507h-508z" />
<glyph unicode="^" d="M233 995l504 502l504 -502l-24 -24l-480 481l-479 -481z" />
<glyph unicode="_" d="M246 -229h983v-33h-983v33z" />
<glyph unicode="`" horiz-adv-x="737" d="M231 1466l29 17l246 -492l-29 -16z" />
<glyph unicode="a" d="M229 240v503l256 256h258l256 -256v-491l242 -240l-24 -24l-234 235l-240 -239h-258zM262 252l236 -236h233l236 236v479l-236 236h-233l-236 -236v-479z" />
<glyph unicode="b" d="M223 492l6 6v977h33v-945l469 469h258l256 -256v-503l-256 -256h-258l-469 469v-453h-33v485zM268 492l475 -476h234l235 236v479l-235 236h-234z" />
<glyph unicode="c" d="M229 240v503l256 256h744v-32h-731l-236 -236v-479l236 -236h731v-32h-744z" />
<glyph unicode="d" d="M229 240v503l256 256h258l469 -469v945h33v-977l6 -6l-6 -7v-485h-33v453l-469 -469h-258zM262 252l236 -236h233l475 476l-475 475h-233l-236 -236v-479z" />
<glyph unicode="e" d="M229 240v503l256 256h504l262 -262l-262 -262h-727v-223l236 -236h485v-32h-498zM262 508h715l229 229l-229 230h-479l-236 -236v-223z" />
<glyph unicode="f" d="M246 721v33h229v481l256 256h258l252 -250l-24 -24l-240 241h-234l-235 -235v-469h475v-33h-475v-721h-33v721h-229z" />
<glyph unicode="g" d="M229 240v503l256 256h504l256 -256v-995l-256 -256h-504l-252 250l25 25l240 -242h479l235 235v224h-727zM262 252l236 -236h714v715l-235 236h-479l-236 -236v-479z" />
<glyph unicode="h" d="M229 0v1475h33v-945l469 469h258l256 -256v-743h-33v731l-235 236h-234l-481 -482v-485h-33z" />
<glyph unicode="i" horiz-adv-x="491" d="M229 0v983h33v-983h-33zM229 1229v246h33v-246h-33z" />
<glyph unicode="j" horiz-adv-x="1228" d="M233 -258l25 25l240 -242h233l236 235v1223h32v-1235l-256 -256h-258zM967 1229v246h32v-246h-32z" />
<glyph unicode="k" d="M229 0v1475h33v-967h469l486 487l24 -24l-481 -479l481 -480l-24 -24l-486 487h-469v-475h-33z" />
<glyph unicode="l" horiz-adv-x="737" d="M229 240v1235h33v-1223l242 -240l-25 -24z" />
<glyph unicode="m" d="M229 0v983h33v-207l230 230l245 -246l246 246l262 -263v-743h-33v731l-229 230l-229 -230v-239h-33v239l-229 230l-230 -230v-731h-33z" />
<glyph unicode="n" d="M229 0v983h33v-453l469 469h258l256 -256v-743h-33v731l-235 236h-234l-481 -482v-485h-33z" />
<glyph unicode="o" d="M229 240v503l256 256h504l256 -256v-503l-256 -256h-504zM262 252l236 -236h479l235 236v479l-235 236h-479l-236 -236v-479z" />
<glyph unicode="p" d="M229 -492v1475h33v-207l223 223h504l256 -256v-503l-256 -256h-727v-476h-33zM262 16h715l235 236v479l-235 236h-479l-236 -236v-715z" />
<glyph unicode="q" d="M229 240v503l256 256h504l223 -223v207h33v-1475h-33v476h-727zM262 252l236 -236h714v715l-235 236h-479l-236 -236v-479z" />
<glyph unicode="r" d="M229 0v983h33v-453l469 469h258l252 -249l-24 -25l-240 242h-234l-481 -482v-485h-33z" />
<glyph unicode="s" d="M223 737l262 262h744v-32h-731l-230 -230l230 -229h491l262 -262l-262 -262h-743v32h731l229 230l-229 229h-492z" />
<glyph unicode="t" d="M246 967v32h475v476h33v-476h475v-32h-475v-715l229 -229l234 235l24 -25l-258 -256l-262 263v727h-475z" />
<glyph unicode="u" d="M229 240v743h33v-731l236 -236h233l481 482v485h33v-983h-33v453l-469 -469h-258z" />
<glyph unicode="v" d="M231 975l29 16l477 -954l477 954l29 -16l-506 -1012z" />
<glyph unicode="w" d="M229 979l33 8l230 -919l245 983l246 -983l229 919l33 -8l-262 -1047l-246 983l-245 -983z" />
<glyph unicode="x" d="M233 12l482 480l-482 479l25 24l479 -481l480 481l24 -24l-481 -479l481 -480l-24 -24l-480 481l-479 -481z" />
<glyph unicode="y" d="M231 975l29 16l477 -954l477 954l29 -16l-741 -1483h-256v33h235l238 475z" />
<glyph unicode="z" d="M207 -16l983 983h-944v32h1022l-983 -983h944v-32h-1022z" />
<glyph unicode="{" horiz-adv-x="983" d="M223 737l252 252v246l250 252l25 -25l-242 -239v-246l-240 -240l240 -239v-246l242 -240l-25 -24l-250 252v245z" />
<glyph unicode="|" horiz-adv-x="737" d="M352 -492v2212h33v-2212h-33z" />
<glyph unicode="}" horiz-adv-x="983" d="M233 12l242 240v246l240 239l-240 240v246l-242 239l25 25l250 -252v-246l252 -252l-252 -252v-245l-250 -252z" />
<glyph unicode="~" d="M233 750l254 254l492 -246l238 237l24 -24l-254 -254l-491 246l-238 -238z" />
<glyph unicode="&#xa1;" horiz-adv-x="491" d="M229 0v983h33v-983h-33zM229 1229v246h33v-246h-33z" />
<glyph unicode="&#xa2;" d="M229 240v503l256 256h404l78 236l32 -12l-75 -224h305v-32h-316l-317 -951h633v-32h-643l-78 -236l-33 12l76 224h-66zM262 252l236 -236h63l318 951h-381l-236 -236v-479z" />
<glyph unicode="&#xa3;" d="M207 -16l268 268v469h-229v33h229v481l262 262l258 -256l-24 -24l-234 235l-229 -229v-469h229v-33h-229v-481l-223 -224h944v-32h-1022z" />
<glyph unicode="&#xa5;" d="M231 1466l29 17l477 -717l477 717l29 -17l-475 -712h215v-33h-229v-213h229v-33h-229v-475h-33v475h-229v33h229v213h-229v33h215z" />
<glyph unicode="&#xa7;" horiz-adv-x="1228" d="M223 737l246 246l-246 246l262 262h258l252 -250l-24 -24l-240 241h-233l-230 -229l230 -230h245l263 -262l-246 -245l246 -246l-263 -262h-258l-252 249l25 25l240 -242h233l230 230l-230 229h-246zM268 737l230 -229h233l230 229l-230 230h-233z" />
<glyph unicode="&#xa8;" horiz-adv-x="983" d="M229 1229v246h33v-246h-33zM721 1229v246h33v-246h-33z" />
<glyph unicode="&#xaa;" horiz-adv-x="983" d="M229 1100v258l133 133h136l133 -133v-246l119 -117l-25 -24l-111 112l-116 -116h-136zM246 721v33h491v-33h-491zM262 1112l113 -113h110l113 113v234l-113 112h-110l-113 -112v-234z" />
<glyph unicode="&#xab;" d="M223 737l502 504l25 -24l-482 -480l482 -479l-25 -25zM715 737l502 504l24 -24l-481 -480l481 -479l-24 -25z" />
<glyph unicode="&#xad;" d="M246 721v33h983v-33h-983z" />
<glyph unicode="&#xaf;" horiz-adv-x="983" d="M246 1212v33h491v-33h-491z" />
<glyph unicode="&#xb0;" horiz-adv-x="983" d="M223 1229l269 268l268 -268l-268 -268zM268 1229l224 -223l223 223l-223 223z" />
<glyph unicode="&#xb1;" d="M246 229v33h983v-33h-983zM246 967v32h475v476h33v-476h475v-32h-475v-475h-33v475h-475z" />
<glyph unicode="&#xb4;" horiz-adv-x="737" d="M231 991l246 492l29 -17l-246 -491z" />
<glyph unicode="&#xb5;" d="M229 -489l246 1474l33 -2v-731l235 -236h230l239 480v487h33v-983h-33v422l-219 -438h-262l-256 256v544l-213 -1278z" />
<glyph unicode="&#xb8;" horiz-adv-x="737" d="M229 0h33v-229h246v-279h-262v33h229v213h-246v262z" />
<glyph unicode="&#xba;" horiz-adv-x="983" d="M229 1100v258l133 133h259l133 -133v-258l-133 -133h-259zM246 721v33h491v-33h-491zM262 1112l113 -113h233l113 113v234l-113 112h-233l-113 -112v-234z" />
<glyph unicode="&#xbb;" d="M233 258l482 479l-482 480l25 24l502 -504l-502 -504zM725 258l481 479l-481 480l25 24l501 -504l-501 -504z" />
<glyph unicode="&#xbc;" horiz-adv-x="1720" d="M233 10l1229 1475l25 -21l-1229 -1474zM356 1364l152 149v-759h106v-33h-245v33h106v682l-94 -97zM827 229l418 557v-524h107v-33h-107v-229h-33v229h-385zM893 262h319v426z" />
<glyph unicode="&#xbd;" horiz-adv-x="1720" d="M233 10l1229 1475l25 -21l-1229 -1474zM356 1364l152 149v-759h106v-33h-245v33h106v682l-94 -97zM967 -16v268l133 133h246l112 113v110l-112 113h-234l-117 -119l-24 25l129 127h258l133 -133v-136l-133 -133h-246l-113 -112v-224h476v-32h-508z" />
<glyph unicode="&#xbf;" horiz-adv-x="1228" d="M229 240v258l246 245v240h33v-252l-246 -246v-233l236 -236h233l240 242l24 -25l-252 -249h-258zM475 1229v246h33v-246h-33z" />
<glyph unicode="&#xc0;" d="M229 0v498l508 508l508 -508v-498h-33v475h-950v-475h-33zM238 1460l16 29l491 -246l-16 -29zM285 508h905l-453 453z" />
<glyph unicode="&#xc1;" d="M229 0v498l508 508l508 -508v-498h-33v475h-950v-475h-33zM285 508h905l-453 453zM729 1243l492 246l16 -29l-492 -246z" />
<glyph unicode="&#xc2;" d="M229 0v498l508 508l508 -508v-498h-33v475h-950v-475h-33zM233 995l504 502l504 -502l-24 -24l-480 481l-479 -481zM285 508h905l-453 453z" />
<glyph unicode="&#xc3;" d="M229 0v498l508 508l508 -508v-498h-33v475h-950v-475h-33zM233 1241l254 254l492 -246l238 238l24 -25l-254 -254l-491 246l-238 -237zM285 508h905l-453 453z" />
<glyph unicode="&#xc4;" d="M229 0v496l508 1015l508 -1015v-496h-33v475h-950v-475h-33zM229 1229v246h33v-246h-33zM272 508h930l-465 930zM1212 1229v246h33v-246h-33z" />
<glyph unicode="&#xc5;" d="M229 0v498l486 485l-246 246l268 268l269 -268l-246 -246l485 -485v-498h-33v475h-950v-475h-33zM285 508h905l-453 453zM514 1229l223 -223l224 223l-224 223z" />
<glyph unicode="&#xc6;" d="M229 0v741l500 750h500v-33h-475v-704h475v-33h-475v-705h475v-32h-508v491h-459v-475h-33zM262 508h459v913l-459 -688v-225z" />
<glyph unicode="&#xc7;" d="M229 240v995l256 256h504l252 -250l-24 -24l-240 241h-479l-236 -235v-971l236 -236h479l240 242l24 -25l-252 -249h-235v-213h245v-279h-262v33h230v213h-246v246h-236z" />
<glyph unicode="&#xc8;" d="M229 -16v1015h1000v-32h-967v-459h475v-33h-475v-459h967v-32h-1000zM483 1460l17 29l491 -246l-16 -29z" />
<glyph unicode="&#xc9;" d="M229 -16v1015h1000v-32h-967v-459h475v-33h-475v-459h967v-32h-1000zM483 1243l492 246l16 -29l-491 -246z" />
<glyph unicode="&#xca;" d="M229 -16v1015h1000v-32h-967v-459h475v-33h-475v-459h967v-32h-1000zM479 1241l258 256l258 -256l-24 -24l-234 235l-233 -235z" />
<glyph unicode="&#xcb;" d="M229 -16v1015h1000v-32h-967v-459h475v-33h-475v-459h967v-32h-1000zM475 1229v246h33v-246h-33zM967 1229v246h32v-246h-32z" />
<glyph unicode="&#xcc;" horiz-adv-x="983" d="M238 1460l16 29l491 -246l-16 -29zM246 16h229v951h-229v32h491v-32h-229v-951h229v-32h-491v32z" />
<glyph unicode="&#xcd;" horiz-adv-x="983" d="M238 1243l491 246l16 -29l-491 -246zM246 16h229v951h-229v32h491v-32h-229v-951h229v-32h-491v32z" />
<glyph unicode="&#xce;" horiz-adv-x="983" d="M233 1241l259 256l258 -256l-25 -24l-233 235l-234 -235zM246 16h229v951h-229v32h491v-32h-229v-951h229v-32h-491v32z" />
<glyph unicode="&#xcf;" horiz-adv-x="983" d="M229 1229v246h33v-246h-33zM246 16h229v951h-229v32h491v-32h-229v-951h229v-32h-491v32zM721 1229v246h33v-246h-33z" />
<glyph unicode="&#xd0;" d="M123 721v33h106v737h760l256 -256v-995l-256 -256h-760v737h-106zM262 16h715l235 236v971l-235 235h-715v-704h352v-33h-352v-705z" />
<glyph unicode="&#xd1;" d="M229 0v1022l983 -983v944h33v-1022l-983 983v-944h-33zM233 1241l254 254l492 -246l238 238l24 -25l-254 -254l-491 246l-238 -237z" />
<glyph unicode="&#xd2;" d="M229 -16v1015h1016v-1015h-1016zM262 16h950v951h-950v-951zM483 1460l17 29l491 -246l-16 -29z" />
<glyph unicode="&#xd3;" d="M229 -16v1015h1016v-1015h-1016zM262 16h950v951h-950v-951zM483 1243l492 246l16 -29l-491 -246z" />
<glyph unicode="&#xd4;" d="M229 -16v1015h1016v-1015h-1016zM262 16h950v951h-950v-951zM479 1241l258 256l258 -256l-24 -24l-234 235l-233 -235z" />
<glyph unicode="&#xd5;" d="M229 -16v1015h1016v-1015h-1016zM233 1241l254 254l492 -246l238 238l24 -25l-254 -254l-491 246l-238 -237zM262 16h950v951h-950v-951z" />
<glyph unicode="&#xd6;" d="M229 -16v1015h1016v-1015h-1016zM262 16h950v951h-950v-951zM475 1229v246h33v-246h-33zM967 1229v246h32v-246h-32z" />
<glyph unicode="&#xd7;" d="M233 12l482 480l-482 479l25 24l479 -481l480 481l24 -24l-481 -479l481 -480l-24 -24l-480 481l-479 -481z" />
<glyph unicode="&#xd8;" d="M229 240v995l256 256h504l139 -137l86 129l29 -17l-92 -137l94 -94v-995l-256 -256h-504l-139 137l-86 -129l-29 16l93 137zM262 252l80 -78l768 1151l-133 133h-479l-236 -235v-971zM365 150l133 -134h479l235 236v971l-79 77z" />
<glyph unicode="&#xd9;" d="M229 240v1235h33v-1223l236 -236h479l235 236v1223h33v-1235l-256 -256h-504zM483 1460l17 29l491 -246l-16 -29z" />
<glyph unicode="&#xda;" d="M229 240v1235h33v-1223l236 -236h479l235 236v1223h33v-1235l-256 -256h-504zM483 1243l492 246l16 -29l-491 -246z" />
<glyph unicode="&#xdb;" d="M229 240v1235h33v-1223l236 -236h479l235 236v1223h33v-1235l-256 -256h-504zM479 1241l258 256l258 -256l-24 -24l-234 235l-233 -235z" />
<glyph unicode="&#xdc;" d="M229 240v1235h33v-1223l236 -236h479l235 236v1223h33v-1235l-256 -256h-504zM475 1229v246h33v-246h-33zM967 1229v246h32v-246h-32z" />
<glyph unicode="&#xdd;" d="M233 971l25 24l479 -481l480 481l24 -24l-487 -486v-485h-33v485zM483 1243l492 246l16 -29l-491 -246z" />
<glyph unicode="&#xde;" d="M229 0v1475h33v-353h727l256 -256v-258l-256 -256h-727v-352h-33zM262 385h715l235 236v233l-235 236h-715v-705z" />
<glyph unicode="&#xdf;" d="M233 12l242 240v983l256 256h258l256 -256v-258l-239 -240l239 -239v-258l-256 -256h-252v32h240l235 236v233l-251 252l251 252v234l-235 235h-234l-235 -235v-983l-250 -252z" />
<glyph unicode="&#xe0;" d="M229 240v503l256 256h258l256 -256v-491l242 -240l-24 -24l-234 235l-240 -239h-258zM262 252l236 -236h233l236 236v479l-236 236h-233l-236 -236v-479zM360 1460l17 29l491 -246l-16 -29z" />
<glyph unicode="&#xe1;" d="M229 240v503l256 256h258l256 -256v-491l242 -240l-24 -24l-234 235l-240 -239h-258zM262 252l236 -236h233l236 236v479l-236 236h-233l-236 -236v-479zM360 1243l492 246l16 -29l-491 -246z" />
<glyph unicode="&#xe2;" d="M229 240v503l256 256h258l256 -256v-491l242 -240l-24 -24l-234 235l-240 -239h-258zM262 252l236 -236h233l236 236v479l-236 236h-233l-236 -236v-479zM356 1241l258 256l258 -256l-24 -24l-234 235l-233 -235z" />
<glyph unicode="&#xe3;" d="M229 240v503l256 256h258l256 -256v-491l242 -240l-24 -24l-234 235l-240 -239h-258zM262 252l236 -236h233l236 236v479l-236 236h-233l-236 -236v-479zM356 1241l131 131l246 -123l115 115l24 -25l-131 -131l-245 123l-115 -114z" />
<glyph unicode="&#xe4;" d="M229 240v503l256 256h258l256 -256v-491l242 -240l-24 -24l-234 235l-240 -239h-258zM229 1229v246h33v-246h-33zM262 252l236 -236h233l236 236v479l-236 236h-233l-236 -236v-479zM967 1229v246h32v-246h-32z" />
<glyph unicode="&#xe5;" d="M229 240v503l256 256h90l-229 230l268 268l269 -268l-230 -230h90l256 -256v-491l242 -240l-24 -24l-234 235l-240 -239h-258zM262 252l236 -236h233l236 236v479l-236 236h-110l-7 -6l-6 6h-110l-236 -236v-479zM391 1229l223 -223l224 223l-224 223z" />
<glyph unicode="&#xe6;" d="M229 240v503l263 263l245 -246l246 246l262 -263v-268h-491v-223l235 -236h240v-32h-252l-223 223v-207h-33v207l-229 -230zM262 252l230 -229l229 229v479l-229 230l-230 -230v-479zM754 508h458v223l-229 230l-229 -230v-223z" />
<glyph unicode="&#xe7;" d="M229 240v503l256 256h744v-32h-731l-236 -236v-479l236 -236h731v-32h-475v-213h245v-279h-262v33h230v213h-246v246h-236z" />
<glyph unicode="&#xe8;" d="M229 240v503l256 256h504l262 -262l-262 -262h-727v-223l236 -236h485v-32h-498zM262 508h715l229 229l-229 230h-479l-236 -236v-223zM483 1460l17 29l491 -246l-16 -29z" />
<glyph unicode="&#xe9;" d="M229 240v503l256 256h504l262 -262l-262 -262h-727v-223l236 -236h485v-32h-498zM262 508h715l229 229l-229 230h-479l-236 -236v-223zM483 1243l492 246l16 -29l-491 -246z" />
<glyph unicode="&#xea;" d="M229 240v503l256 256h504l262 -262l-262 -262h-727v-223l236 -236h485v-32h-498zM262 508h715l229 229l-229 230h-479l-236 -236v-223zM479 1241l258 256l258 -256l-24 -24l-234 235l-233 -235z" />
<glyph unicode="&#xeb;" d="M229 240v503l256 256h504l262 -262l-262 -262h-727v-223l236 -236h485v-32h-498zM262 508h715l229 229l-229 230h-479l-236 -236v-223zM475 1229v246h33v-246h-33zM967 1229v246h32v-246h-32z" />
<glyph unicode="&#xec;" horiz-adv-x="983" d="M238 1460l16 29l491 -246l-16 -29zM475 0v983h33v-983h-33z" />
<glyph unicode="&#xed;" horiz-adv-x="983" d="M238 1243l491 246l16 -29l-491 -246zM475 0v983h33v-983h-33z" />
<glyph unicode="&#xee;" horiz-adv-x="983" d="M233 1241l259 256l258 -256l-25 -24l-233 235l-234 -235zM475 0v983h33v-983h-33z" />
<glyph unicode="&#xef;" horiz-adv-x="983" d="M229 1229v246h33v-246h-33zM475 0v983h33v-983h-33zM721 1229v246h33v-246h-33z" />
<glyph unicode="&#xf0;" d="M229 240v503l256 256h459l-293 291l-151 -76l-17 29l144 72l-142 143h-239v33h252l161 -160l316 158l16 -29l-307 -153l561 -564v-503l-256 -256h-504zM262 252l236 -236h479l235 236v479l-235 236h-479l-236 -236v-479z" />
<glyph unicode="&#xf1;" d="M229 0v983h33v-453l469 469h258l256 -256v-743h-33v731l-235 236h-234l-481 -482v-485h-33zM233 1241l254 254l492 -246l238 238l24 -25l-254 -254l-491 246l-238 -237z" />
<glyph unicode="&#xf2;" d="M229 240v503l256 256h504l256 -256v-503l-256 -256h-504zM262 252l236 -236h479l235 236v479l-235 236h-479l-236 -236v-479zM483 1460l17 29l491 -246l-16 -29z" />
<glyph unicode="&#xf3;" d="M229 240v503l256 256h504l256 -256v-503l-256 -256h-504zM262 252l236 -236h479l235 236v479l-235 236h-479l-236 -236v-479zM483 1243l492 246l16 -29l-491 -246z" />
<glyph unicode="&#xf4;" d="M229 240v503l256 256h504l256 -256v-503l-256 -256h-504zM262 252l236 -236h479l235 236v479l-235 236h-479l-236 -236v-479zM479 1241l258 256l258 -256l-24 -24l-234 235l-233 -235z" />
<glyph unicode="&#xf5;" d="M229 240v503l256 256h504l256 -256v-503l-256 -256h-504zM233 1241l254 254l492 -246l238 238l24 -25l-254 -254l-491 246l-238 -237zM262 252l236 -236h479l235 236v479l-235 236h-479l-236 -236v-479z" />
<glyph unicode="&#xf6;" d="M229 240v503l256 256h504l256 -256v-503l-256 -256h-504zM229 1229v246h33v-246h-33zM262 252l236 -236h479l235 236v479l-235 236h-479l-236 -236v-479zM1212 1229v246h33v-246h-33z" />
<glyph unicode="&#xf7;" d="M246 721v33h983v-33h-983zM721 246v246h33v-246h-33zM721 983v246h33v-246h-33z" />
<glyph unicode="&#xf8;" d="M229 240v503l256 256h504l117 -116l111 112l24 -24l-113 -111l117 -117v-503l-256 -256h-504l-116 116l-111 -112l-25 24l113 111zM262 252l107 -107l714 715l-106 107h-479l-236 -236v-479zM391 123l107 -107h479l235 236v479l-106 107z" />
<glyph unicode="&#xf9;" d="M229 240v743h33v-731l236 -236h233l481 482v485h33v-983h-33v453l-469 -469h-258zM483 1460l17 29l491 -246l-16 -29z" />
<glyph unicode="&#xfa;" d="M229 240v743h33v-731l236 -236h233l481 482v485h33v-983h-33v453l-469 -469h-258zM483 1243l492 246l16 -29l-491 -246z" />
<glyph unicode="&#xfb;" d="M229 240v743h33v-731l236 -236h233l481 482v485h33v-983h-33v453l-469 -469h-258zM479 1241l258 256l258 -256l-24 -24l-234 235l-233 -235z" />
<glyph unicode="&#xfc;" d="M229 240v743h33v-731l236 -236h233l481 482v485h33v-983h-33v453l-469 -469h-258zM475 1229v246h33v-246h-33zM967 1229v246h32v-246h-32z" />
<glyph unicode="&#xfd;" d="M231 975l29 16l477 -954l477 954l29 -16l-741 -1483h-256v33h235l238 475zM483 1243l492 246l16 -29l-491 -246z" />
<glyph unicode="&#xfe;" d="M229 -492v1967h33v-699l223 223h504l256 -256v-503l-256 -256h-727v-476h-33zM262 16h715l235 236v479l-235 236h-479l-236 -236v-715z" />
<glyph unicode="&#xff;" d="M231 975l29 16l477 -954l477 954l29 -16l-741 -1483h-256v33h235l238 475zM475 1229v246h33v-246h-33zM967 1229v246h32v-246h-32z" />
<glyph unicode="&#x178;" d="M233 971l25 24l479 -481l480 481l24 -24l-487 -486v-485h-33v485zM475 1229v246h33v-246h-33zM967 1229v246h32v-246h-32z" />
<glyph unicode="&#x2c6;" horiz-adv-x="983" d="M233 1241l259 256l258 -256l-25 -24l-233 235l-234 -235z" />
<glyph unicode="&#x2dc;" horiz-adv-x="737" d="M-12 1241l258 256l246 -246l233 236l25 -25l-258 -256l-246 246l-234 -235z" />
<glyph unicode="&#x2000;" horiz-adv-x="860" />
<glyph unicode="&#x2001;" horiz-adv-x="1720" />
<glyph unicode="&#x2002;" horiz-adv-x="860" />
<glyph unicode="&#x2003;" horiz-adv-x="1720" />
<glyph unicode="&#x2004;" horiz-adv-x="573" />
<glyph unicode="&#x2005;" horiz-adv-x="430" />
<glyph unicode="&#x2006;" horiz-adv-x="286" />
<glyph unicode="&#x2007;" horiz-adv-x="286" />
<glyph unicode="&#x2008;" horiz-adv-x="215" />
<glyph unicode="&#x2009;" horiz-adv-x="344" />
<glyph unicode="&#x200a;" horiz-adv-x="95" />
<glyph unicode="&#x2010;" d="M246 721v33h983v-33h-983z" />
<glyph unicode="&#x2011;" d="M246 721v33h983v-33h-983z" />
<glyph unicode="&#x2012;" d="M246 721v33h983v-33h-983z" />
<glyph unicode="&#x2013;" horiz-adv-x="1515" d="M246 721v33h1024v-33h-1024z" />
<glyph unicode="&#x2014;" horiz-adv-x="2539" d="M246 721v33h2048v-33h-2048z" />
<glyph unicode="&#x2018;" horiz-adv-x="737" d="M231 1466l29 17l246 -492l-29 -16z" />
<glyph unicode="&#x2019;" horiz-adv-x="737" d="M231 991l246 492l29 -17l-246 -491z" />
<glyph unicode="&#x201a;" horiz-adv-x="737" d="M231 -238l246 492l29 -16l-246 -492z" />
<glyph unicode="&#x201c;" horiz-adv-x="983" d="M231 1466l29 17l246 -492l-29 -16zM477 1466l29 17l246 -492l-29 -16z" />
<glyph unicode="&#x201d;" horiz-adv-x="983" d="M231 991l246 492l29 -17l-246 -491zM477 991l246 492l29 -17l-246 -491z" />
<glyph unicode="&#x201e;" horiz-adv-x="983" d="M231 -238l246 492l29 -16l-246 -492zM477 -238l246 492l29 -16l-246 -492z" />
<glyph unicode="&#x202f;" horiz-adv-x="344" />
<glyph unicode="&#x2039;" horiz-adv-x="1228" d="M223 737l748 750l24 -25l-727 -725l727 -725l-24 -24z" />
<glyph unicode="&#x203a;" horiz-adv-x="1228" d="M233 12l728 725l-728 725l25 25l748 -750l-748 -749z" />
<glyph unicode="&#x205f;" horiz-adv-x="430" />
<glyph unicode="&#x25fc;" horiz-adv-x="993" d="M0 0v993h993v-993h-993z" />
</font>
</defs>
</svg>
